<svg xmlns="http://www.w3.org/2000/svg" xmlns:xlink="http://www.w3.org/1999/xlink" width="2000" zoomAndPan="magnify" viewBox="0 0 1500 1499.999933" height="2000" preserveAspectRatio="xMidYMid meet" version="1.0"><defs><g/></defs><g fill="#231f20" fill-opacity="1"><g transform="translate(217.672865, 872.371585)"><g><path d="M 80.953125 0 L -0.453125 -224.65625 L 86.859375 -224.65625 L 108.234375 -162.8125 L 125.0625 -99.59375 L 165.078125 -224.65625 L 215.109375 -224.65625 L 255.125 -99.59375 L 271.953125 -163.265625 L 292.421875 -224.65625 L 380.203125 -224.65625 L 298.34375 0 L 221.484375 0 L 190.09375 -83.6875 L 158.71875 0 Z M 80.953125 0 "/></g></g></g><g fill="#231f20" fill-opacity="1"><g transform="translate(597.41767, 872.371585)"><g><path d="M 191.46875 7.734375 C 156.90625 7.734375 126.28125 1.21875 99.59375 -11.8125 C 72.914062 -24.851562 52.070312 -43.726562 37.0625 -68.4375 C 22.050781 -93.15625 14.546875 -123.25 14.546875 -158.71875 C 14.546875 -193.28125 22.050781 -222.988281 37.0625 -247.84375 C 52.070312 -272.707031 72.914062 -291.882812 99.59375 -305.375 C 126.28125 -318.875 156.90625 -325.625 191.46875 -325.625 C 226.03125 -325.625 256.570312 -319.03125 283.09375 -305.84375 C 309.625 -292.65625 330.394531 -273.628906 345.40625 -248.765625 C 360.414062 -223.898438 367.921875 -193.882812 367.921875 -158.71875 C 367.921875 -123.25 360.414062 -93.15625 345.40625 -68.4375 C 330.394531 -43.726562 309.625 -24.851562 283.09375 -11.8125 C 256.570312 1.21875 226.03125 7.734375 191.46875 7.734375 Z M 191.46875 -69.125 C 209.050781 -69.125 224.285156 -72.988281 237.171875 -80.71875 C 250.054688 -88.457031 260.0625 -99.070312 267.1875 -112.5625 C 274.3125 -126.050781 277.875 -141.4375 277.875 -158.71875 C 277.875 -186.007812 270.066406 -207.765625 254.453125 -223.984375 C 238.835938 -240.203125 217.84375 -248.3125 191.46875 -248.3125 C 174.1875 -248.3125 159.023438 -244.519531 145.984375 -236.9375 C 132.941406 -229.363281 122.78125 -218.828125 115.5 -205.328125 C 108.226562 -191.835938 104.59375 -176.300781 104.59375 -158.71875 C 104.59375 -141.132812 108.226562 -125.59375 115.5 -112.09375 C 122.78125 -98.601562 133.015625 -88.066406 146.203125 -80.484375 C 159.398438 -72.910156 174.488281 -69.125 191.46875 -69.125 Z M 191.46875 -69.125 "/></g></g></g><g fill="#231f20" fill-opacity="1"><g transform="translate(979.891199, 872.371585)"><g><path d="M 152.8125 7.734375 C 133.707031 7.734375 116.117188 6.289062 100.046875 3.40625 C 83.984375 0.53125 68.75 -4.921875 54.34375 -12.953125 C 39.945312 -20.992188 25.316406 -32.742188 10.453125 -48.203125 L 60.03125 -105.046875 C 75.800781 -89.890625 91.867188 -80.035156 108.234375 -75.484375 C 124.609375 -70.941406 139.617188 -68.671875 153.265625 -68.671875 C 168.117188 -68.671875 180.09375 -71.25 189.1875 -76.40625 C 198.28125 -81.5625 202.828125 -88.382812 202.828125 -96.875 C 202.828125 -113.539062 185.242188 -123.238281 150.078125 -125.96875 C 132.796875 -127.488281 116.347656 -130.066406 100.734375 -133.703125 C 85.117188 -137.335938 71.25 -142.867188 59.125 -150.296875 C 47 -157.734375 37.523438 -167.816406 30.703125 -180.546875 C 23.878906 -193.285156 20.46875 -209.503906 20.46875 -229.203125 C 20.46875 -246.179688 24.179688 -260.734375 31.609375 -272.859375 C 39.035156 -284.992188 49.113281 -294.925781 61.84375 -302.65625 C 74.582031 -310.382812 88.910156 -316.144531 104.828125 -319.9375 C 120.742188 -323.726562 137.039062 -325.625 153.71875 -325.625 C 177.363281 -325.625 198.8125 -322.816406 218.0625 -317.203125 C 237.320312 -311.597656 255.4375 -301.820312 272.40625 -287.875 L 227.84375 -231.03125 C 217.226562 -239.21875 205.707031 -244.976562 193.28125 -248.3125 C 180.851562 -251.644531 167.664062 -253.3125 153.71875 -253.3125 C 142.800781 -253.3125 132.867188 -251.414062 123.921875 -247.625 C 114.984375 -243.832031 110.515625 -237.691406 110.515625 -229.203125 C 110.515625 -218.296875 115.363281 -211.320312 125.0625 -208.28125 C 134.769531 -205.25 147.503906 -202.828125 163.265625 -201.015625 C 179.035156 -199.191406 194.570312 -196.15625 209.875 -191.90625 C 225.1875 -187.664062 238.984375 -181.53125 251.265625 -173.5 C 263.546875 -165.46875 273.398438 -155.082031 280.828125 -142.34375 C 288.253906 -129.613281 291.96875 -114 291.96875 -95.5 C 291.96875 -77.3125 288.101562 -61.695312 280.375 -48.65625 C 272.644531 -35.625 262.179688 -24.9375 248.984375 -16.59375 C 235.796875 -8.257812 220.941406 -2.125 204.421875 1.8125 C 187.898438 5.757812 170.695312 7.734375 152.8125 7.734375 Z M 152.8125 7.734375 "/></g></g></g><g fill="#f6be17" fill-opacity="1"><g transform="translate(885.327136, 1003.691606)"><g><path d="M 38.546875 0 L 7.9375 -85.359375 L 26.640625 -85.359375 L 38.375 -49.296875 L 49.46875 -15.046875 L 50.453125 -15.046875 L 61.53125 -49.296875 L 73.28125 -85.359375 L 91.3125 -85.359375 L 60.703125 0 Z M 38.546875 0 "/></g></g></g><g fill="#f6be17" fill-opacity="1"><g transform="translate(984.573256, 1003.691606)"><g><path d="M 49.625 1.984375 C 42.34375 1.984375 36.023438 0.632812 30.671875 -2.0625 C 25.328125 -4.769531 20.914062 -8.660156 17.4375 -13.734375 C 13.96875 -18.804688 11.40625 -25.035156 9.75 -32.421875 C 8.101562 -39.804688 7.28125 -48.242188 7.28125 -57.734375 C 7.28125 -67.109375 8.101562 -75.515625 9.75 -82.953125 C 11.40625 -90.398438 13.96875 -96.660156 17.4375 -101.734375 C 20.914062 -106.804688 25.328125 -110.691406 30.671875 -113.390625 C 36.023438 -116.097656 42.34375 -117.453125 49.625 -117.453125 C 56.90625 -117.453125 63.21875 -116.097656 68.5625 -113.390625 C 73.914062 -110.691406 78.328125 -106.804688 81.796875 -101.734375 C 85.273438 -96.660156 87.835938 -90.398438 89.484375 -82.953125 C 91.140625 -75.515625 91.96875 -67.109375 91.96875 -57.734375 C 91.96875 -48.242188 91.140625 -39.804688 89.484375 -32.421875 C 87.835938 -25.035156 85.273438 -18.804688 81.796875 -13.734375 C 78.328125 -8.660156 73.914062 -4.769531 68.5625 -2.0625 C 63.21875 0.632812 56.90625 1.984375 49.625 1.984375 Z M 49.625 -13.234375 C 58.007812 -13.234375 63.992188 -16.347656 67.578125 -22.578125 C 71.160156 -28.804688 72.953125 -37.21875 72.953125 -47.8125 L 72.953125 -67.65625 C 72.953125 -78.238281 71.160156 -86.644531 67.578125 -92.875 C 63.992188 -99.113281 58.007812 -102.234375 49.625 -102.234375 C 45.4375 -102.234375 41.851562 -101.429688 38.875 -99.828125 C 35.894531 -98.234375 33.46875 -95.914062 31.59375 -92.875 C 29.71875 -89.84375 28.363281 -86.203125 27.53125 -81.953125 C 26.707031 -77.710938 26.296875 -72.945312 26.296875 -67.65625 L 26.296875 -47.8125 C 26.296875 -42.507812 26.707031 -37.734375 27.53125 -33.484375 C 28.363281 -29.242188 29.71875 -25.609375 31.59375 -22.578125 C 33.46875 -19.546875 35.894531 -17.226562 38.875 -15.625 C 41.851562 -14.03125 45.4375 -13.234375 49.625 -13.234375 Z M 49.625 -47.96875 C 45.769531 -47.96875 43.097656 -48.738281 41.609375 -50.28125 C 40.117188 -51.832031 39.375 -53.707031 39.375 -55.90625 L 39.375 -59.546875 C 39.375 -61.753906 40.117188 -63.628906 41.609375 -65.171875 C 43.097656 -66.710938 45.769531 -67.484375 49.625 -67.484375 C 53.488281 -67.484375 56.160156 -66.710938 57.640625 -65.171875 C 59.128906 -63.628906 59.875 -61.753906 59.875 -59.546875 L 59.875 -55.90625 C 59.875 -53.707031 59.128906 -51.832031 57.640625 -50.28125 C 56.160156 -48.738281 53.488281 -47.96875 49.625 -47.96875 Z M 49.625 -47.96875 "/></g></g></g><g fill="#f6be17" fill-opacity="1"><g transform="translate(1083.819376, 1003.691606)"><g><path d="M 49.625 1.65625 C 44.332031 1.65625 40.609375 0.550781 38.453125 -1.65625 C 36.304688 -3.863281 35.234375 -6.566406 35.234375 -9.765625 L 35.234375 -14.0625 C 35.234375 -17.257812 36.304688 -19.957031 38.453125 -22.15625 C 40.609375 -24.363281 44.332031 -25.46875 49.625 -25.46875 C 54.914062 -25.46875 58.632812 -24.363281 60.78125 -22.15625 C 62.9375 -19.957031 64.015625 -17.257812 64.015625 -14.0625 L 64.015625 -9.765625 C 64.015625 -6.566406 62.9375 -3.863281 60.78125 -1.65625 C 58.632812 0.550781 54.914062 1.65625 49.625 1.65625 Z M 49.625 1.65625 "/></g></g></g><g fill="#f6be17" fill-opacity="1"><g transform="translate(1183.065484, 1003.691606)"><g><path d="M 14.5625 0 L 14.5625 -15.390625 L 46.984375 -15.390625 L 46.984375 -101.90625 L 45.65625 -101.90625 L 18.859375 -73.28125 L 7.4375 -83.53125 L 36.890625 -115.46875 L 65.5 -115.46875 L 65.5 -15.390625 L 93.46875 -15.390625 L 93.46875 0 Z M 14.5625 0 "/></g></g></g></svg>